<svg width="40" height="40" viewBox="0 0 40 40" fill="none" xmlns="http://www.w3.org/2000/svg">
<circle cx="20" cy="20" r="20" fill="black"/>
<path d="M20.618 29.956C19.1502 29.956 17.8481 29.7547 16.7118 29.3523C15.5802 28.9545 14.6261 28.3674 13.8496 27.5909C13.0731 26.8191 12.4836 25.8722 12.0811 24.75C11.6786 23.6278 11.4774 22.3471 11.4774 20.9077C11.4774 19.5062 11.681 18.2467 12.0882 17.1293C12.4954 16.0118 13.0873 15.0601 13.8638 14.2741C14.645 13.4834 15.5944 12.8797 16.7118 12.4631C17.8292 12.0464 19.0981 11.8381 20.5186 11.8381C21.8775 11.8381 23.0754 12.0511 24.1124 12.4773C25.1493 12.9034 26.0205 13.4882 26.726 14.2315C27.4362 14.9749 27.9713 15.8272 28.3311 16.7884C28.691 17.7495 28.8709 18.7652 28.8709 19.8352C28.8709 20.5833 28.8235 21.3149 28.7288 22.0298C28.6341 22.7401 28.4589 23.384 28.2033 23.9616C27.9523 24.5346 27.5877 24.9938 27.1095 25.3395C26.636 25.6804 26.0205 25.858 25.2629 25.8722C24.8605 25.8864 24.4698 25.839 24.091 25.7301C23.7123 25.6212 23.3903 25.446 23.1251 25.2045C22.86 24.9583 22.699 24.6458 22.6422 24.267H22.557C22.4433 24.5464 22.2539 24.8068 21.9888 25.0483C21.7236 25.285 21.3851 25.4744 20.9731 25.6165C20.566 25.7538 20.0925 25.8106 19.5527 25.7869C18.9561 25.7633 18.4187 25.6283 17.9405 25.3821C17.4623 25.1359 17.0527 24.795 16.7118 24.3594C16.3756 23.9238 16.1176 23.4077 15.9376 22.8111C15.7577 22.2145 15.6678 21.5516 15.6678 20.8224C15.6678 20.1217 15.7696 19.4943 15.9731 18.9403C16.1767 18.3816 16.4537 17.901 16.8041 17.4986C17.1592 17.0914 17.5664 16.7694 18.0257 16.5327C18.485 16.2959 18.9703 16.1468 19.4817 16.0852C19.9788 16.0284 20.4357 16.0426 20.8524 16.1278C21.2691 16.2131 21.6147 16.3433 21.8893 16.5185C22.1687 16.6937 22.3439 16.8854 22.4149 17.0938H22.5072V16.2983H24.2544V22.8892C24.2544 23.2633 24.3515 23.5805 24.5456 23.8409C24.7445 24.1013 25.0262 24.2315 25.3908 24.2315C25.8216 24.2315 26.1578 24.0729 26.3993 23.7557C26.6455 23.4384 26.8183 22.9508 26.9178 22.2926C27.0219 21.6345 27.074 20.7917 27.074 19.7642C27.074 19.0445 26.9769 18.3674 26.7828 17.733C26.5934 17.0937 26.3117 16.5161 25.9376 16C25.5683 15.4792 25.1138 15.0317 24.574 14.6577C24.0342 14.2836 23.4187 13.9948 22.7274 13.7912C22.0409 13.5876 21.2809 13.4858 20.4476 13.4858C19.316 13.4858 18.3098 13.661 17.4291 14.0114C16.5484 14.357 15.8051 14.8565 15.199 15.5099C14.5977 16.1634 14.1408 16.947 13.8283 17.8608C13.5205 18.7699 13.3666 19.7902 13.3666 20.9219C13.3666 22.1009 13.5252 23.1473 13.8425 24.0611C14.1597 24.9702 14.6285 25.7372 15.2487 26.3622C15.869 26.9872 16.636 27.4607 17.5499 27.7827C18.4637 28.1094 19.5172 28.2727 20.7104 28.2727C21.2407 28.2727 21.7615 28.2254 22.2729 28.1307C22.7842 28.0407 23.2388 27.9366 23.6365 27.8182C24.039 27.7045 24.3396 27.6122 24.5385 27.5412L25.0357 29.0966C24.7421 29.2339 24.3515 29.3688 23.8638 29.5014C23.3808 29.634 22.8553 29.7429 22.2871 29.8281C21.7236 29.9134 21.1673 29.956 20.618 29.956ZM19.9646 24.0469C20.5802 24.0469 21.0749 23.9238 21.449 23.6776C21.8278 23.4313 22.1 23.0644 22.2658 22.5767C22.4362 22.0843 22.5214 21.4688 22.5214 20.7301C22.5167 20.0104 22.4244 19.4375 22.2445 19.0114C22.0693 18.5805 21.7946 18.2727 21.4206 18.0881C21.0513 17.8987 20.5754 17.804 19.993 17.804C19.458 17.804 19.0011 17.9342 18.6223 18.1946C18.2482 18.455 17.9618 18.8078 17.7629 19.2528C17.5688 19.6979 17.4694 20.1927 17.4646 20.7372C17.4694 21.3101 17.5499 21.8499 17.7061 22.3565C17.8671 22.8584 18.1275 23.2656 18.4874 23.5781C18.8519 23.8906 19.3444 24.0469 19.9646 24.0469Z" fill="white"/>
</svg>
